#!OML:ASF E:\Mandelcareful walks\Project 1\Capture day 1\Session 1\Subject1.ASF
:FULLY-SPECIFIED
:DEGREES
291
root -11.1843 14.5586 -0.891009 -314.538 76.6821 -331.158
lowerback 33.944 1.24946 -2.21275
upperback 7.49023 1.18291 -3.56934
thorax -8.97891 0.923307 -3.09141
lowerneck -28.2586 10.5012 4.5092
upperneck 18.1213 18.035 -18.2823
head 13.1139 6.20714 -3.98701
rclavicle -5.56597e-015 7.7526e-015
rhumerus -23.7958 0.806465 -86.4528
rradius 31.7196
rwrist -53.0767
rhand 9.7251 -36.0324
rfingers 7.12502
rthumb 34.8656 -62.6198
lclavicle -5.56597e-015 7.7526e-015
lhumerus -2.89474 -82.2141 103.712
lradius 48.1662
lwrist -1.53021
lhand -5.42288 -13.307
lfingers 7.12502
lthumb 20.3871 15.6429
rfemur -32.5432 -15.3571 -2.79327
rtibia 60.3282
rfoot -31.3613 -19.8186
rtoes -24.0344
lfemur -64.5297 8.81878 -23.6536
ltibia 61.9343
lfoot -10.9422 5.73592
ltoes -7.08139
292
root -11.0321 14.551 -1.01281 -316.048 76.5205 -332.898
lowerback 33.9476 1.51985 -2.46905
upperback 7.42058 1.40796 -3.72696
thorax -9.04808 1.02939 -3.2084
lowerneck -28.7272 10.2371 4.30177
upperneck 18.1087 17.513 -17.644
head 13.0118 6.0073 -3.82434
rclavicle -1.21259e-014 2.50469e-014
rhumerus -23.3914 -0.710514 -86.391
rradius 30.2145
rwrist -51.3597
rhand 9.61126 -35.7181
rfingers 7.12502
rthumb 34.7575 -62.3305
lclavicle -1.21259e-014 2.50469e-014
lhumerus -2.86069 -83.1927 103.752
lradius 47.8632
lwrist -1.14917
lhand -4.80781 -12.784
lfingers 7.12502
lthumb 20.9781 16.1015
rfemur -32.0004 -14.8102 -3.05241
rtibia 59.5569
rfoot -31.201 -20.5671
rtoes -24.1438
lfemur -64.7631 8.8774 -23.9276
ltibia 62.9913
lfoot -12.0064 5.77875
ltoes -6.66885
293
root -10.8843 14.5469 -1.13422 -317.385 76.4398 -334.491
lowerback 33.7754 1.70787 -2.63716
upperback 7.41421 1.57685 -3.84745
thorax -8.98276 1.10899 -3.3045
lowerneck -29.3312 9.78719 3.78275
upperneck 18.0882 16.7927 -16.7862
head 12.8561 5.72088 -3.57226
rclavicle -5.36719e-015 5.96354e-016
rhumerus -23.0107 -2.1597 -86.3212
rradius 28.9784
rwrist -49.8577
rhand 9.11535 -35.9028
rfingers 7.12502
rthumb 34.2868 -62.6224
lclavicle -5.36719e-015 5.96354e-016
lhumerus -2.96371 -83.5451 104.003
lradius 47.5824
lwrist -2.04853
lhand -2.60398 -12.1479
lfingers 7.12502
lthumb 23.094 16.4881
rfemur -31.5158 -14.4371 -3.20927
rtibia 58.799
rfoot -30.8871 -21.5451
rtoes -24.9397
lfemur -64.9793 8.86033 -24.158
ltibia 63.9003
lfoot -12.885 5.73484
ltoes -6.17648
294
root -10.7411 14.5454 -1.25387 -318.347 76.492 -335.614
lowerback 33.6605 1.77815 -2.73471
upperback 7.45666 1.63322 -3.92866
thorax -8.88933 1.13819 -3.35461
lowerneck -30.1934 9.2282 3.16445
upperneck 18.2413 15.966 -15.7862
head 12.7916 5.37479 -3.2731
rclavicle -1.19271e-015 -6.55989e-015
rhumerus -22.5949 -3.31378 -86.2897
rradius 27.8744
rwrist -48.5592
rhand 8.72114 -35.6553
rfingers 7.12502
rthumb 33.9124 -62.4585
lclavicle -1.19271e-015 -6.55989e-015
lhumerus -3.16524 -82.9834 104.421
lradius 47.0683
lwrist -5.06918
lhand 0.269119 -12.8513
lfingers 7.12502
lthumb 25.8481 15.4122
rfemur -30.9017 -14.2347 -3.37249
rtibia 58.0383
rfoot -30.5578 -22.3453
rtoes -25.9546
lfemur -65.0371 8.7367 -24.4485
ltibia 64.7113
lfoot -13.7308 5.724
ltoes -6.24794
295
root -10.6061 14.5455 -1.36792 -319.476 76.6758 -336.913
lowerback 33.6586 1.79552 -2.86584
upperback 7.41779 1.60944 -3.88101
thorax -8.93357 1.12603 -3.22629
lowerneck -31.0583 8.60973 2.5479
upperneck 18.4814 15.0703 -14.7347
head 12.7654 5.00403 -2.9707
rclavicle -4.17448e-015 -2.48481e-015
rhumerus -22.2909 -4.15263 -86.2149
rradius 26.8549
rwrist -47.4258
rhand 8.93499 -34.8621
rfingers 7.12502
rthumb 34.1155 -61.6201
lclavicle -4.17448e-015 -2.48481e-015
lhumerus -3.78873 -84.2663 104.949
lradius 47.0543
lwrist -1.56629
lhand -2.86637 -11.8401
lfingers 7.12502
lthumb 22.8422 16.8272
rfemur -30.3179 -14.1248 -3.36971
rtibia 57.281
rfoot -30.1315 -22.8026
rtoes -25.9202
lfemur -65.0908 8.45394 -24.4914
ltibia 65.4132
lfoot -14.5216 5.74396
ltoes -5.76769
296
root -10.4805 14.5458 -1.47739 -320.731 76.8071 -338.466
lowerback 33.6774 1.8712 -3.23376
upperback 7.22434 1.57134 -3.67008
thorax -9.16019 1.10245 -2.79833
lowerneck -31.5793 7.80708 1.64496
upperneck 18.4399 13.9615 -13.5373
head 12.5282 4.58054 -2.61445
rclavicle -1.49089e-015 -1.15295e-014
rhumerus -22.173 -4.97649 -85.8881
rradius 25.9165
rwrist -46.0436
rhand 9.74081 -34.1319
rfingers 7.12502
rthumb 34.8805 -60.7157
lclavicle -1.49089e-015 -1.15295e-014
lhumerus -4.40154 -83.2902 105.798
lradius 46.6886
lwrist -3.84454
lhand 0.539879 -12.5017
lfingers 7.12502
lthumb 26.1074 15.7238
rfemur -30.0047 -14.1191 -3.25108
rtibia 56.5903
rfoot -29.8929 -23.1126
rtoes -24.6928
lfemur -65.2917 8.12201 -24.3833
ltibia 66.0212
lfoot -15.3553 5.73332
ltoes -4.16991
297
root -10.3594 14.5479 -1.58197 -321.844 76.7092 -339.789
lowerback 33.4444 1.90279 -3.27111
upperback 7.29565 1.59646 -3.86654
thorax -8.98885 1.11695 -2.98656
lowerneck -32.1382 6.65536 0.703061
upperneck 18.1637 12.2358 -11.9068
head 12.1418 3.95304 -2.21466
rclavicle -3.56322e-014 -1.54555e-014
rhumerus -21.6937 -6.8152 -85.8137
rradius 24.9619
rwrist -44.0827
rhand 11.2349 -32.7525
rfingers 7.12502
rthumb 36.2966 -58.9956
lclavicle -3.56322e-014 -1.54555e-014
lhumerus -3.90467 -84.0748 105.045
lradius 46.5165
lwrist -2.44317
lhand 1.40858 -12.5153
lfingers 7.12502
lthumb 26.9388 15.5846
rfemur -29.776 -14.1402 -3.26814
rtibia 55.9593
rfoot -29.6007 -23.605
rtoes -24.2993
lfemur -65.3191 7.9793 -24.5023
ltibia 66.5598
lfoot -16.317 5.74355
ltoes -2.72517
298
root -10.2426 14.5457 -1.6785 -323.098 76.441 -341.123
lowerback 33.3898 2.05112 -3.42519
upperback 7.33083 1.71951 -4.04682
thorax -8.92325 1.17884 -3.1387
lowerneck -32.7087 5.30394 -0.280249
upperneck 18.0189 10.2877 -10.1701
head 11.8428 3.2311 -1.80565
rclavicle -1.35432e-014 1.27533e-014
rhumerus -21.3353 -8.53723 -85.686
rradius 24.013
rwrist -42.2881
rhand 8.41812 -35.8414
rfingers 7.12502
rthumb 33.6245 -62.7077
lclavicle -1.35432e-014 1.27533e-014
lhumerus -4.6981 -84.3045 105.718
lradius 46.3837
lwrist -2.5709
lhand 2.31101 -12.5252
lfingers 7.12502
lthumb 27.802 15.4383
rfemur -29.5671 -14.1061 -3.34595
rtibia 55.3812
rfoot -28.9372 -24.2251
rtoes -24.5453
lfemur -65.1376 8.06232 -24.7947
ltibia 67.0209
lfoot -17.1368 5.92052
ltoes -2.92813
299
root -10.1334 14.5483 -1.76793 -324.677 76.1484 -342.79
lowerback 33.3443 2.21972 -3.73028
upperback 7.27748 1.81679 -4.08973
thorax -8.96255 1.22538 -3.05804
lowerneck -32.892 3.96618 -1.23615
upperneck 17.6923 8.37427 -8.51519
head 11.483 2.53909 -1.41514
rclavicle 1.56046e-014 7.24073e-014
rhumerus -21.0945 -9.70093 -85.5256
rradius 23.0995
rwrist -40.7667
rhand 8.21686 -35.0679
rfingers 7.12502
rthumb 33.4332 -61.9757
lclavicle 1.56046e-014 7.24073e-014
lhumerus -6.88505 -83.9885 107.826
lradius 46.2812
lwrist -2.89719
lhand 2.40937 -12.8455
lfingers 7.12502
lthumb 27.896 15.1028
rfemur -29.4049 -13.9526 -3.28747
rtibia 54.8304
rfoot -28.5895 -24.6096
rtoes -23.4049
lfemur -64.9436 8.16226 -24.9549
ltibia 67.407
lfoot -17.7301 6.2351
ltoes -3.7629
300
root -10.03 14.5674 -1.854 -326.511 75.8928 -344.712
lowerback 33.34 2.35422 -3.99785
upperback 7.13562 1.87417 -4.07004
thorax -9.11821 1.2491 -2.92072
lowerneck -32.735 2.61113 -2.38634
upperneck 17.2597 6.48963 -6.69429
head 11.0766 1.87817 -0.917946
rclavicle -6.06293e-015 -2.20651e-014
rhumerus -21.0165 -10.5064 -85.4026
rradius 22.4661
rwrist -39.3241
rhand 8.01382 -35.4137
rfingers 7.12502
rthumb 33.2402 -62.3629
lclavicle -6.06293e-015 -2.20651e-014
lhumerus -11.181 -84.8063 111.965
lradius 46.4269
lwrist 0.258375
lhand -0.797929 -11.5709
lfingers 7.12502
lthumb 24.8259 16.8374
rfemur -29.2581 -13.7368 -3.05889
rtibia 54.2633
rfoot -28.5754 -24.8797
rtoes -21.0874
lfemur -64.6957 8.14806 -24.8397
ltibia 67.7107
lfoot -18.4547 6.31852
ltoes -2.41812
301
root -9.93151 14.5844 -1.93784 -327.922 75.7071 -346.303
lowerback 33.2027 2.39676 -4.12591
upperback 7.03191 1.87092 -4.09376
thorax -9.1806 1.24364 -2.87479
lowerneck -32.7013 1.1992 -3.67267
upperneck 16.9382 4.59355 -4.71467
head 10.794 1.2099 -0.334176
rclavicle 4.92986e-014 -4.30369e-014
rhumerus -21.032 -11.053 -85.3616
rradius 21.9909
rwrist -38.1765
rhand 7.81909 -35.1692
rfingers 7.12502
rthumb 33.055 -62.1578
lclavicle 4.92986e-014 -4.30369e-014
lhumerus -11.0619 -83.5014 112.047
lradius 45.8882
lwrist -3.27391
lhand 1.25547 -12.6784
lfingers 7.12502
lthumb 26.7923 15.4439
rfemur -29.3008 -13.6643 -2.8274
rtibia 53.7322
rfoot -28.2826 -25.3209
rtoes -19.1742
lfemur -64.569 8.06209 -24.7661
ltibia 67.9559
lfoot -19.2043 6.27849
ltoes -0.598836
302
root -9.83857 14.598 -2.01491 -329.238 75.4916 -347.803
lowerback 32.9881 2.42264 -4.28527
upperback 7.01513 1.85227 -4.13121
thorax -9.11656 1.23406 -2.81516
lowerneck -32.787 -0.117019 -4.67768
upperneck 16.6621 2.78367 -2.92333
head 10.6293 0.567685 0.157901
rclavicle 9.74045e-015 7.81224e-014
rhumerus -20.8781 -11.5212 -85.3969
rradius 21.5795
rwrist -37.5194
rhand 7.56351 -34.8537
rfingers 7.12502
rthumb 32.8119 -61.8934
lclavicle 9.74045e-015 7.81224e-014
lhumerus -13.7807 -84.4106 114.61
lradius 45.8884
lwrist -0.257639
lhand -2.71161 -11.6138
lfingers 7.12502
lthumb 22.9907 17.0351
rfemur -29.4583 -13.6498 -2.60354
rtibia 53.2445
rfoot -27.7082 -25.6307
rtoes -18.6219
lfemur -64.4544 8.03824 -24.7434
ltibia 68.132
lfoot -19.786 6.39221
ltoes 0.107939
303
root -9.75248 14.6146 -2.08646 -330.67 75.1821 -349.336
lowerback 32.8079 2.45812 -4.44104
upperback 7.1055 1.85839 -4.19749
thorax -8.94579 1.23958 -2.79486
lowerneck -33.05 -1.28119 -5.40728
upperneck 16.4074 1.15912 -1.4089
head 10.5615 -0.0114838 0.540741
rclavicle 4.96962e-015 -1.39149e-015
rhumerus -20.2948 -12.3921 -85.4691
rradius 20.8866
rwrist -36.6018
rhand 7.62644 -34.9355
rfingers 7.12502
rthumb 32.8718 -61.9627
lclavicle 4.96962e-015 -1.39149e-015
lhumerus -10.2288 -83.603 111.011
lradius 45.6445
lwrist -3.48217
lhand -0.600961 -12.3599
lfingers 7.12502
lthumb 25.0146 16.0223
rfemur -29.6611 -13.5594 -2.39151
rtibia 52.8317
rfoot -27.0697 -25.4684
rtoes -18.413
lfemur -64.2409 8.11028 -24.7052
ltibia 68.2769
lfoot -20.3538 6.57273
ltoes 0.544874
304
root -9.67405 14.6279 -2.15694 -331.343 74.8942 -350.126
lowerback 32.5926 2.44273 -4.83435
upperback 7.07113 1.72576 -4.07655
thorax -8.90492 1.17826 -2.40204
lowerneck -32.5215 -2.12238 -6.18859
upperneck 15.8223 0.0194026 -0.21976
head 10.2769 -0.406143 0.900063
rclavicle -2.78299e-015 5.34731e-014
rhumerus -19.9615 -12.6712 -85.2857
rradius 19.928
rwrist -35.6648
rhand 8.47787 -33.6168
rfingers 7.12502
rthumb 33.6813 -60.4707
lclavicle -2.78299e-015 5.34731e-014
lhumerus -13.1798 -84.3469 113.915
lradius 45.6963
lwrist 0.0484701
lhand -5.53671 -11.4722
lfingers 7.12502
lthumb 20.2777 17.4893
rfemur -29.9773 -13.5137 -2.37437
rtibia 52.5221
rfoot -26.6345 -25.0212
rtoes -18.0674
lfemur -64.1104 8.14491 -24.9118
ltibia 68.4247
lfoot -20.8889 6.82796
ltoes 0.279727
